<svg width="25" height="25" viewBox="0 0 25 25" fill="none" xmlns="http://www.w3.org/2000/svg">
<path d="M12.2725 8.68803C11.4825 8.68803 10.26 7.78971 8.97248 7.82137C7.27249 7.84387 5.71417 8.8072 4.83834 10.333C3.07418 13.3955 4.38334 17.9188 6.10416 20.408C6.94832 21.6196 7.94415 22.9829 9.26414 22.9404C10.5308 22.8863 11.0058 22.1179 12.5433 22.1179C14.0691 22.1179 14.5016 22.9404 15.8433 22.9079C17.2074 22.8863 18.0732 21.6746 18.9066 20.4513C19.8699 19.0446 20.2699 17.6805 20.2916 17.6055C20.2591 17.5946 17.6399 16.588 17.6083 13.558C17.5866 11.0247 19.6749 9.81303 19.7724 9.75886C18.5816 8.0172 16.7533 7.82221 16.1141 7.77887C14.4474 7.64887 13.0516 8.6872 12.2725 8.6872V8.68803ZM15.0874 6.13305C15.7899 5.28972 16.2541 4.11056 16.1249 2.94141C15.1191 2.98474 13.9066 3.61223 13.1816 4.4564C12.5316 5.20306 11.97 6.40472 12.1208 7.55137C13.2358 7.63804 14.3833 6.97805 15.0866 6.13388" fill="#101316"/>
</svg>
