<svg width="18" height="18" viewBox="0 0 18 18" fill="none" xmlns="http://www.w3.org/2000/svg">
<path fill-rule="evenodd" clip-rule="evenodd" d="M11.7841 12.5797C12.0038 12.7994 12.3599 12.7994 12.5796 12.5797C12.7993 12.36 12.7993 12.0039 12.5796 11.7842L9.79537 8.99999L12.5796 6.21577C12.7992 5.9961 12.7992 5.63995 12.5796 5.42028C12.3599 5.20061 12.0038 5.20061 11.7841 5.42028L8.99987 8.20449L6.21563 5.42025C5.99596 5.20058 5.6398 5.20058 5.42013 5.42025C5.20046 5.63992 5.20046 5.99607 5.42013 6.21574L8.20438 8.99999L5.42012 11.7842C5.20045 12.0039 5.20045 12.3601 5.42012 12.5797C5.63979 12.7994 5.99595 12.7994 6.21562 12.5797L8.99987 9.79548L11.7841 12.5797Z" fill="#101316"/>
</svg>
