<svg width="24" height="25" viewBox="0 0 24 25" fill="none" xmlns="http://www.w3.org/2000/svg">
<path fill-rule="evenodd" clip-rule="evenodd" d="M18 2.94141H6C3.79086 2.94141 2 4.73227 2 6.94141V18.9414C2 21.1505 3.79086 22.9414 6 22.9414H18C20.2091 22.9414 22 21.1505 22 18.9414V6.94141C22 4.73227 20.2091 2.94141 18 2.94141ZM16.592 10.4019C16.8463 10.0749 16.7874 9.60373 16.4605 9.34943C16.1335 9.09512 15.6623 9.15403 15.408 9.48099L11.401 14.6328C11.3119 14.7474 11.1443 14.7623 11.0364 14.6652L8.50173 12.384C8.19385 12.1069 7.71963 12.1318 7.44254 12.4397C7.16544 12.7476 7.1904 13.2218 7.49828 13.4989L10.033 15.7801C10.7881 16.4597 11.9613 16.3557 12.585 15.5538L16.592 10.4019Z" fill="#1C4E8E"/>
</svg>
