<svg width="25" height="25" viewBox="0 0 25 25" fill="none" xmlns="http://www.w3.org/2000/svg">
<path fill-rule="evenodd" clip-rule="evenodd" d="M21.3124 13.1461C21.3124 12.5079 21.2552 11.8943 21.1488 11.3052H12.6723V14.7866H17.516C17.3074 15.9116 16.6733 16.8648 15.7201 17.503V19.7612H18.6288C20.3306 18.1944 21.3124 15.8871 21.3124 13.1461Z" fill="#4285F4"/>
<path fill-rule="evenodd" clip-rule="evenodd" d="M12.6723 21.9415C15.1023 21.9415 17.1396 21.1356 18.6288 19.761L15.7201 17.5028C14.9142 18.0428 13.8832 18.3619 12.6723 18.3619C10.3282 18.3619 8.34406 16.7787 7.63632 14.6514H4.62946V16.9832C6.11039 19.9246 9.15407 21.9415 12.6723 21.9415Z" fill="#34A853"/>
<path fill-rule="evenodd" clip-rule="evenodd" d="M7.63633 14.6516C7.45633 14.1116 7.35405 13.5347 7.35405 12.9415C7.35405 12.3483 7.45633 11.7715 7.63633 11.2315V8.89966H4.62947C4.01991 10.1147 3.67218 11.4892 3.67218 12.9415C3.67218 14.3938 4.01991 15.7684 4.62947 16.9834L7.63633 14.6516Z" fill="#FBBC05"/>
<path fill-rule="evenodd" clip-rule="evenodd" d="M12.6723 7.52101C13.9937 7.52101 15.1801 7.9751 16.1128 8.86694L18.6942 6.28553C17.1356 4.83324 15.0983 3.94141 12.6723 3.94141C9.15407 3.94141 6.11039 5.95826 4.62946 8.89966L7.63632 11.2315C8.34406 9.10421 10.3282 7.52101 12.6723 7.52101Z" fill="#EA4335"/>
</svg>
