<svg width="179" height="35" viewBox="0 0 179 35" fill="none" xmlns="http://www.w3.org/2000/svg">
<g clip-path="url(#clip0_4075_396)">
<path d="M6.81177 15.0759H22.2183V20.8023H6.81177V15.0759ZM7.36037 28.1648H24.7784V34.073H0V2.25963H24.1841V8.16782H7.36037V28.1648Z" fill="#101316"/>
<path d="M30.1683 34.073V0.35083H37.3001V34.073H30.1683Z" fill="#101316"/>
<path d="M56.1253 34.4366C53.3214 34.4366 50.8527 33.8912 48.7192 32.8004C46.6163 31.7097 44.9857 30.2251 43.8276 28.3466C42.6694 26.4378 42.0903 24.2714 42.0903 21.8476C42.0903 19.3934 42.6542 17.2271 43.7818 15.3486C44.94 13.4398 46.5096 11.9551 48.4906 10.8947C50.4717 9.80394 52.7118 9.25857 55.211 9.25857C57.6187 9.25857 59.7826 9.77364 61.7027 10.8038C63.6533 11.8036 65.1924 13.258 66.3201 15.1668C67.4478 17.0453 68.0116 19.3025 68.0116 21.9385C68.0116 22.2111 67.9964 22.5293 67.9659 22.8929C67.9354 23.2261 67.905 23.5443 67.8745 23.8473H31.6355V19.7115H64.1257L61.3827 20.9386C61.3827 19.6661 61.1237 18.5602 60.6055 17.6209C60.0874 16.6817 59.3712 15.9545 58.4569 15.4394C57.5425 14.8941 56.4758 14.6214 55.2567 14.6214C54.0376 14.6214 52.9556 14.8941 52.0108 15.4394C51.0965 15.9545 50.3803 16.6968 49.8621 17.6664C49.344 18.6056 49.085 19.7267 49.085 21.0295V22.1203C49.085 23.4534 49.3745 24.635 49.9536 25.6652C50.5631 26.665 51.4013 27.4376 52.468 27.983C53.5652 28.4981 54.8452 28.7556 56.3082 28.7556C57.6187 28.7556 58.7616 28.5587 59.7369 28.1648C60.7427 27.7709 61.657 27.1801 62.4799 26.3923L66.2744 30.4826C65.1467 31.7552 63.7295 32.7399 62.0228 33.4367C60.316 34.1033 58.3502 34.4366 56.1253 34.4366Z" fill="#101316"/>
<path d="M84.646 34.4366C81.9945 34.4366 79.6324 33.9063 77.56 32.8459C75.4875 31.7552 73.8569 30.2554 72.6683 28.3466C71.5101 26.4378 70.9311 24.2714 70.9311 21.8476C70.9311 19.3934 71.5101 17.2271 72.6683 15.3486C73.8569 13.4398 75.4875 11.9551 77.56 10.8947C79.6324 9.80394 81.9945 9.25857 84.646 9.25857C87.2366 9.25857 89.492 9.80394 91.4121 10.8947C93.3322 11.9551 94.7494 13.4852 95.6637 15.4849L90.132 18.439C89.492 17.2877 88.6843 16.4393 87.709 15.8939C86.7642 15.3486 85.728 15.0759 84.6003 15.0759C83.3812 15.0759 82.284 15.3486 81.3087 15.8939C80.3334 16.4393 79.5563 17.2119 78.9772 18.2118C78.4286 19.2116 78.1543 20.4235 78.1543 21.8476C78.1543 23.2716 78.4286 24.4835 78.9772 25.4834C79.5563 26.4832 80.3334 27.2558 81.3087 27.8012C82.284 28.3466 83.3812 28.6193 84.6003 28.6193C85.728 28.6193 86.7642 28.3617 87.709 27.8467C88.6843 27.3013 89.492 26.4378 90.132 25.2561L95.6637 28.2557C94.7494 30.2251 93.3322 31.7552 91.4121 32.8459C89.492 33.9063 87.2366 34.4366 84.646 34.4366Z" fill="#101316"/>
<path d="M110.185 34.4366C107.289 34.4366 105.034 33.7094 103.419 32.2551C101.803 30.7705 100.996 28.5738 100.996 25.6652V0.35083H108.128V25.5743C108.128 26.6044 108.402 27.4073 108.95 27.983C109.499 28.5284 110.246 28.8011 111.191 28.8011C112.318 28.8011 113.278 28.4981 114.071 27.8921L115.991 32.8913C115.259 33.4064 114.375 33.8003 113.339 34.073C112.333 34.3154 111.282 34.4366 110.185 34.4366ZM97.2013 15.6212V10.1675H114.254V15.6212H97.2013Z" fill="#101316"/>
<path d="M119.994 34.073V9.62215H126.806V16.5302L125.846 14.5305C126.577 12.8035 127.751 11.5007 129.366 10.622C130.981 9.71305 132.947 9.25857 135.264 9.25857V15.803C134.959 15.7727 134.684 15.7576 134.441 15.7576C134.197 15.7273 133.938 15.7121 133.663 15.7121C131.713 15.7121 130.128 16.2727 128.909 17.3937C127.72 18.4844 127.126 20.1963 127.126 22.5293V34.073H119.994Z" fill="#101316"/>
<path d="M151.029 34.4366C148.408 34.4366 146.076 33.8912 144.034 32.8004C142.023 31.7097 140.423 30.2251 139.234 28.3466C138.076 26.4378 137.497 24.2714 137.497 21.8476C137.497 19.3934 138.076 17.2271 139.234 15.3486C140.423 13.4398 142.023 11.9551 144.034 10.8947C146.076 9.80394 148.408 9.25857 151.029 9.25857C153.62 9.25857 155.936 9.80394 157.978 10.8947C160.02 11.9551 161.62 13.4246 162.778 15.3031C163.936 17.1816 164.515 19.3631 164.515 21.8476C164.515 24.2714 163.936 26.4378 162.778 28.3466C161.62 30.2251 160.02 31.7097 157.978 32.8004C155.936 33.8912 153.62 34.4366 151.029 34.4366ZM151.029 28.6193C152.218 28.6193 153.284 28.3466 154.229 27.8012C155.174 27.2558 155.921 26.4832 156.469 25.4834C157.018 24.4532 157.292 23.2413 157.292 21.8476C157.292 20.4235 157.018 19.2116 156.469 18.2118C155.921 17.2119 155.174 16.4393 154.229 15.8939C153.284 15.3486 152.218 15.0759 151.029 15.0759C149.84 15.0759 148.774 15.3486 147.829 15.8939C146.884 16.4393 146.122 17.2119 145.543 18.2118C144.994 19.2116 144.72 20.4235 144.72 21.8476C144.72 23.2413 144.994 24.4532 145.543 25.4834C146.122 26.4832 146.884 27.2558 147.829 27.8012C148.774 28.3466 149.84 28.6193 151.029 28.6193Z" fill="#101316"/>
<path d="M173.081 34.6412C172.028 34.6412 171.091 34.4198 170.27 33.9768C169.462 33.5338 168.819 32.9308 168.341 32.1679C167.876 31.3926 167.643 30.5128 167.643 29.5284C167.643 28.5317 167.876 27.6518 168.341 26.8889C168.819 26.1137 169.462 25.5107 170.27 25.08C171.091 24.637 172.028 24.4155 173.081 24.4155C174.122 24.4155 175.053 24.637 175.873 25.08C176.694 25.5107 177.337 26.1075 177.802 26.8704C178.268 27.6334 178.501 28.5194 178.501 29.5284C178.501 30.5128 178.268 31.3926 177.802 32.1679C177.337 32.9308 176.694 33.5338 175.873 33.9768C175.053 34.4198 174.122 34.6412 173.081 34.6412ZM173.081 32.2786C173.559 32.2786 173.987 32.1679 174.367 31.9464C174.747 31.7249 175.047 31.4111 175.267 31.005C175.488 30.5866 175.598 30.0944 175.598 29.5284C175.598 28.95 175.488 28.4578 175.267 28.0517C175.047 27.6457 174.747 27.3319 174.367 27.1104C173.987 26.8889 173.559 26.7781 173.081 26.7781C172.603 26.7781 172.175 26.8889 171.795 27.1104C171.415 27.3319 171.109 27.6457 170.876 28.0517C170.656 28.4578 170.546 28.95 170.546 29.5284C170.546 30.0944 170.656 30.5866 170.876 31.005C171.109 31.4111 171.415 31.7249 171.795 31.9464C172.175 32.1679 172.603 32.2786 173.081 32.2786Z" fill="#1C4E8E"/>
</g>
<defs>
<clipPath id="clip0_4075_396">
<rect width="178.5" height="35" fill="white"/>
</clipPath>
</defs>
</svg>
